inDegrees=yes
name=ik_s24_walk_orientation
DataType=double
version=3
OpenSimVersion=4.5
endheader
time	pelvis_tilt	pelvis_list	pelvis_rotation	pelvis_tx	pelvis_ty	pelvis_tz	hip_flexion_r	hip_adduction_r	hip_rotation_r	knee_angle_r	knee_angle_r_beta	ankle_angle_r	subtalar_angle_r	mtp_angle_r	hip_flexion_l	hip_adduction_l	hip_rotation_l	knee_angle_l	knee_angle_l_beta	ankle_angle_l	subtalar_angle_l	mtp_angle_l	lumbar_extension	lumbar_bending	lumbar_rotation	arm_flex_r	arm_add_r	arm_rot_r	elbow_flex_r	pro_sup_r	wrist_flex_r	wrist_dev_r	arm_flex_l	arm_add_l	arm_rot_l	elbow_flex_l	pro_sup_l	wrist_flex_l	wrist_dev_l
11.36538461538473	8.499285195621722	-7.452565342181774	22.491224544877	0	0.93	0	16.16088542006844	19.92189547237547	-26.22163482238031	35.85811370473058	0.6258421477020504	-4.999999851079663	0	0	14.10611018135673	29.98490224626192	-39.97744072592584	11.039182776157	0.1926700861733879	-4.999999851087857	0	0	0	0	-8.87534903033212e-12	0	0	89.49385800923741	0	0	0	0	0	0	68.35327030300263	0	0	0	0
11.3846153846155	8.845640032782017	-6.847105779704822	22.24655117282878	0	0.93	0	13.41715540421433	24.09537715872493	-18.60989810715993	33.18855278382319	0.5792495200496445	-4.999999851071117	0	0	18.64472301991295	29.9742133549795	-39.97610652933776	15.20589060345653	0.2653928567283838	-4.999999851066224	0	0	0	0	-8.87534903033212e-12	0	0	89.59831545042287	0	0	0	0	0	0	70.77875300214528	0	0	0	0
11.40384615384627	9.270254943369071	-6.686925612975178	20.69344059299316	0	0.93	0	11.39310055677544	29.51696075005887	-18.26087108796981	36.16289121123152	0.6311615186765103	-4.999999851070768	0	0	17.90684014418739	29.97859178396306	-39.96866297698511	14.97744782575229	0.2614057781050435	-4.99999985106595	0	0	0	0	-8.87534903033212e-12	0	0	89.87387679216843	0	2.931507834479568e-45	0	0	0	0	69.45427734558847	3.837164337917453e-46	2.541075168468978e-45	0	0
11.42307692307704	8.627702362155864	-5.838704732543968	19.90157800549683	0	0.93	0	-5.696125898249201	29.95864499900767	-12.49400464667485	30.89674760134352	0.5392499738011048	-4.999999851070349	-3.441813750084491e-18	-1.622203136507441e-22	21.33771225726049	29.97912619343648	-39.97571394191984	13.68554923431144	0.2388578940825235	-4.999999851065622	-4.494768171021948e-20	2.526901552500065e-22	-4.582067855972613e-27	-6.406662664002008e-18	-8.875349030332112e-12	-4.522955739109869e-18	-1.304146716020233e-18	89.83725741909603	1.352242959365874e-14	5.346699501034659e-15	-2.509671437416379e-17	6.695856800464145e-20	1.227829948491514e-15	-1.494268372252223e-14	68.22232195073401	0	5.883561276864302e-15	-2.713730293673892e-18	-4.53147024850693e-20
11.44230769230781	8.154642441078897	-8.795050702909602	18.8178223745334	-8.2434226651745e-40	0.93	-7.824544241055383e-32	-9.961517224597749	24.56382875954684	-12.35248215821112	49.2070763783363	0.8588254980822952	-4.999999851071671	5.595612408588398e-18	4.698228246535392e-19	35.08157364634761	29.98272669909778	-39.97611727873461	31.25641306870572	0.5455273204122993	-4.999999851064216	4.420212450227963e-17	7.442450683618317e-19	-3.398661882802565e-26	-1.891806941091933e-18	-8.87534903033212e-12	-3.051137912510946e-21	-7.606832948856629e-21	89.87904058656079	0	0	-3.689871583822655e-21	-1.820267408890786e-20	2.233718212719943e-15	-7.361564210711966e-16	67.869528121551	0	0	2.786810073102251e-21	-1.619469971150328e-20
11.46153846153858	7.051435506926229	-9.954734132019642	18.95383575346133	0	0.93	0	8.85111439416251	2.821872072499939	3.841489089001951	61.23811243937929	1.068806689773665	-4.999999851067959	0	0	46.76082239670967	29.98496420741532	-39.98239690689091	40.10366492427541	0.6999409950451684	-4.999999851061641	0	0	0	0	-8.87534903033212e-12	0	0	89.83798000945656	1.783480842045499e-45	0	0	0	0	0	68.85491805091179	0	0	0	0
11.48076923076935	7.002737802494895	-9.714235936755868	19.68835539207199	0	0.93	0	12.1180329392246	17.63244337916676	-8.243876328995501	54.25761289177867	0.9469739892340595	-4.999999851066332	0	0	80.22334333364823	29.81812087535474	-39.9876305979372	73.21339049917633	1.277814720758962	-4.999999851060412	0	0	0	0	-8.87534903033212e-12	0	0	89.75599787767749	0	0	0	0	0	0	68.84892576954579	0	0	0	0
11.50000000000012	5.489123468697901	-5.121409163295585	11.86577486695685	0	0.93	0	-29.69768164800439	29.99120539077647	-0.3299142257368819	28.17261372453774	0.4917048683857264	-4.999999851043297	0	0	98.78028420199379	24.15724109057166	-39.98847415587843	91.40420808557231	1.59530438127126	-4.999999851051508	0	0	0	0	-8.87534903033212e-12	0	0	89.98156861711169	0	0	0	0	0	0	60.80179965073665	0	0	0	0
11.51923076923089	5.969113808865193	-2.25981572927463	12.8325121452381	0	0.93	0	-29.96485899511252	29.98749693115215	-14.53927007753944	19.33284212245979	0.3374217488051722	-4.99999985104342	0	0	112.4353865463534	29.93283256931561	-39.98650248684842	105.650815290395	1.843954584233762	-4.999999851051369	0	0	0	0	-8.87534903033212e-12	0	0	89.97840573084657	1.052357267868557e-38	8.154996660858282e-39	0	0	0	0	62.36666669133278	9.872626177639754e-39	9.655255191668215e-41	0	0
11.53846153846166	5.573874572812167	0.3576202743024688	13.20201620867482	0	0.93	0	-9.313611585818112	29.94481079089984	-30.30699835118042	30.54451612822603	0.5331023748660547	-4.999999851044095	0	0	106.1931769921748	29.9778371281045	-39.78643183301837	107.1288384015513	1.869750953944009	-4.999999851050624	0	0	0	0	-8.87534903033212e-12	0	0	89.97443929825231	0	0	0	0	0	0	65.12536752502407	6.027533636598201e-39	4.903634126975298e-39	0	0
11.55769230769243	4.649696500833022	-0.3899662207037048	14.7850344988298	0	0.93	0	4.251997613681039	7.625591724322518	-29.72484006824136	58.11392838792967	1.014279391637573	-4.999999851045433	0	0	73.34025684443179	29.96924820248186	-31.49242750084687	87.1116931343315	1.520385862181024	-4.999999851049177	0	0	0	0	-8.87534903033212e-12	0	0	89.95497801320178	0	0	0	0	0	0	69.00678003214833	1.44019058493971e-38	5.126808218947023e-39	0	0
11.5769230769232	4.108281868430161	-2.239732499838193	17.06373405206534	0	0.93	0	8.151991377994301	6.813022407336909	-28.04814443460067	70.30038781706264	1.226973232836652	-4.999999851045545	0	0	30.0092014884277	29.97684681765114	-39.93661128801627	29.19155022621042	0.5094886652086673	-4.999999851048653	0	0	0	0	-8.87534903033212e-12	0	0	89.9040175720373	0	0	0	0	0	0	73.58179565550442	2.711860777376169e-38	9.868050576704956e-39	0	0
11.59615384615397	4.168621282954441	-1.661926866922398	18.26623125196459	0	0.93	0	-2.774243876810869	14.32296539858606	-22.65949255349701	49.94714505360865	0.8717421331566706	-4.999999851045616	0	0	15.92879190715983	29.98389719551506	-39.91888580732174	24.06033225974318	0.4199320170563259	-4.999999851048586	0	0	0	0	-8.87534903033212e-12	0	0	89.90167127310202	0	0	0	0	0	0	73.92330872661934	0	8.220612819582403e-40	0	0
11.61538461538474	3.754436855088206	-0.5194338503103306	18.54667608324013	0	0.93	0	-3.488604350862639	29.09391414564575	-23.9440348921207	15.17930888835807	0.2649289182790886	-4.999999851045771	0	0	24.55514968060722	29.97993713162749	-39.96236456594784	28.01252925442002	0.4889108673008617	-4.999999851048393	0	0	0	0	-8.87534903033212e-12	0	0	89.81360840879839	1.052357267868557e-38	4.678610907888067e-39	0	0	0	0	73.26835243846054	0	8.808445296958975e-39	0	0
11.63461538461551	3.260226073458463	1.20412209758916	18.39390563275082	0	0.93	0	-4.927561021993576	29.9500129512779	-23.32430765430772	0.7512211914367631	0.01311128320132615	-4.999999851053991	0	0	41.10398652762616	29.96163279682644	-39.97709645664655	37.33484996841863	0.651616057687006	-4.999999851046075	0	0	0	0	-8.87534903033212e-12	0	0	89.48564533851275	0	0	0	0	0	0	72.36485296391611	0	0	0	0
11.65384615384628	4.224247437514511	0.3871693999211748	20.08105720644562	0	0.93	0	-11.14133772148799	25.26501063862996	-19.5595945418654	16.74485249363396	0.2922528087746954	-4.999999851053363	0	0	51.40346933978964	29.95248648865505	-39.98550585513137	41.97387734982093	0.7325823595826469	-4.999999851046181	0	0	0	0	-8.87534903033212e-12	0	0	87.02030419282669	0	4.022920555353014e-38	0	0	0	0	72.98219079148605	0	0	0	0
11.67307692307705	5.018278230343593	-0.0209154421339731	19.08191499918445	0	0.93	0	-8.278598016275613	23.82566923362094	-15.54849275537821	32.25833924843559	0.5630142311105141	-4.999999851052976	0	0	55.36399323947038	29.96532562954069	-39.98370976439271	40.22210185203727	0.7020081093905595	-4.99999985104624	0	0	0	0	-8.87534903033212e-12	0	0	87.4118013438049	0	0	0	0	0	0	72.15699353402877	0	0	0	0
